HIERARCHY
ROOT root
{
	OFFSET	0	260	24
	CHANNELS 6  Xposition Yposition Zposition Xrotation Yrotation Zrotation
	JOINT spine_3
	{
		OFFSET	0	81.6	10.2
		CHANNELS 3  Xrotation Yrotation Zrotation
		JOINT spine_4
		{
			OFFSET	0	110.4	14.6
			CHANNELS 3  Xrotation Yrotation Zrotation
			JOINT neck_1
			{
				OFFSET	0	71.8	-50.3
				CHANNELS 3  Xrotation Yrotation Zrotation
				JOINT neck_2
				{
					OFFSET	0	86.2	-25.8
					CHANNELS 3  Xrotation Yrotation Zrotation
					JOINT head_ee
					{
						OFFSET	0	179.8	-8.7
						CHANNELS 3  Xrotation Yrotation Zrotation
						End Site
						{
							OFFSET	1	0	0
						}
					}
				}
			}
			JOINT left_clavicle
			{
				OFFSET	-43.2	22.4	-70.8
				CHANNELS 3  Xrotation Yrotation Zrotation
				JOINT left_shoulder
				{
					OFFSET	-93.9	-5.79999	48.7
					CHANNELS 3  Xrotation Yrotation Zrotation
					JOINT left_elbow
					{
						OFFSET	-291.4	-30.8	15.2
						CHANNELS 3  Xrotation Yrotation Zrotation
						JOINT left_lowarm_twist
						{
							OFFSET	-110.7	-3.89999	13.6
							CHANNELS 3  Xrotation Yrotation Zrotation
							JOINT left_hand
							{
								OFFSET	-110.7	-3.89999	13.6
								CHANNELS 3  Xrotation Yrotation Zrotation
								JOINT left_ee
								{
									OFFSET	-80.8	-5.10001	12.1
									CHANNELS 3  Xrotation Yrotation Zrotation
									End Site
									{
										OFFSET	1	0	0
									}
								}
							}
						}
					}
				}
			}
			JOINT right_clavicle
			{
				OFFSET	43.2	22.4	-70.8
				CHANNELS 3  Xrotation Yrotation Zrotation
				JOINT right_shoulder
				{
					OFFSET	93.9	-5.79999	48.7
					CHANNELS 3  Xrotation Yrotation Zrotation
					JOINT right_elbow
					{
						OFFSET	291.4	-30.8	15.2
						CHANNELS 3  Xrotation Yrotation Zrotation
						JOINT right_lowarm_twist
						{
							OFFSET	110.7	-3.89999	13.6
							CHANNELS 3  Xrotation Yrotation Zrotation
							JOINT right_hand
							{
								OFFSET	110.7	-3.89999	13.6
								CHANNELS 3  Xrotation Yrotation Zrotation
								JOINT right_ee
								{
									OFFSET	80.8	-5.10001	12.1
									CHANNELS 3  Xrotation Yrotation Zrotation
									End Site
									{
										OFFSET	1	0	0
									}
								}
							}
						}
					}
				}
			}
		}
	}
	JOINT spine_2
	{
		OFFSET	0	-124.9	-9.1
		CHANNELS 3  Xrotation Yrotation Zrotation
		JOINT spine_1
		{
			OFFSET	0	-112	10
			CHANNELS 3  Xrotation Yrotation Zrotation
			JOINT left_hip
			{
				OFFSET	-82.8	-137.5	0.300001
				CHANNELS 3  Xrotation Yrotation Zrotation
				JOINT left_knee
				{
					OFFSET	-28.2	-396.7	2.2
					CHANNELS 3  Xrotation Yrotation Zrotation
					JOINT left_ankle
					{
						OFFSET	-11.7	-411.3	35.4
						CHANNELS 3  Xrotation Yrotation Zrotation
						JOINT left_toes
						{
							OFFSET	0	-60	-88.6
							CHANNELS 3  Xrotation Yrotation Zrotation
							JOINT left_foot_ee
							{
								OFFSET	-22.5	-16.5	-42.2
								CHANNELS 3  Xrotation Yrotation Zrotation
								End Site
								{
									OFFSET	1	0	0
								}
							}
						}
					}
				}
			}
			JOINT right_hip
			{
				OFFSET	82.8	-137.5	0.300001
				CHANNELS 3  Xrotation Yrotation Zrotation
				JOINT right_knee
				{
					OFFSET	28.2	-396.7	2.2
					CHANNELS 3  Xrotation Yrotation Zrotation
					JOINT right_ankle
					{
						OFFSET	11.7	-411.3	35.4
						CHANNELS 3  Xrotation Yrotation Zrotation
						JOINT right_toes
						{
							OFFSET	0	-60	-88.6
							CHANNELS 3  Xrotation Yrotation Zrotation
							JOINT right_foot_ee
							{
								OFFSET	22.5	-16.5	-42.2
								CHANNELS 3  Xrotation Yrotation Zrotation
								End Site
								{
									OFFSET	1	0	0
								}
							}
						}
					}
				}
			}
		}
	}
}
MOTION
Frames: 8
Frame Time: 0.02
1282.53 932.543 -1603.19 -2.71341 64.8232 8.77725 4.241 0.180816 -1.8865 4.23605 -0.119336 -1.89139 -10.3128 11.378 4.47871 -10.3845 18.4675 7.26233 -0.0 0.0 -0.0 -1.40947 23.5098 0.793432 -23.2489 -23.1535 67.796 0.557252 -15.4321 0.0755032 -5.02963 -0.204135 0.609456 2.65846 9.78457 21.6762 -0.0 0.0 -0.0 9.75265 -10.1089 -18.3852 -11.8335 33.5963 -51.9825 1.70141 40.1217 -0.621349 -63.1797 5.68064 -5.18912 -7.67901 -23.6867 37.7997 0.0 0.0 0.0 -4.23996 -0.0602509 1.89419 -4.24195 0.0603812 1.89418 31.3796 -28.615 -18.9378 1.5451 -0.0667029 -0.227708 -21.028 29.0296 3.37243 -2.17175 0.0 0.0 -0.0 0.0 -0.0 8.6121 26.2453 -17.6959 -19.3961 -0.302335 -2.94694 41.5587 -18.2857 5.13095 -10.8588 0.0 0.0 0.0 0.0 0.0 
1262.64 931.145 -1606.74 -5.64941 65.0794 11.4753 4.40884 0.151628 -2.11627 4.40264 -0.184424 -2.11367 -7.5649 12.6627 5.14525 -7.53132 19.9575 7.78726 -0.0 0.0 -0.0 -1.26022 22.0907 0.789634 -21.0516 -22.9353 68.5523 0.59015 -16.296 0.0844961 -4.89655 -0.198047 0.593567 2.84689 9.21032 22.8026 -0.0 0.0 -0.0 9.61597 -9.93077 -18.1494 -12.312 32.5827 -51.8322 1.66151 39.4534 -0.595817 -63.897 5.771 -5.20588 -7.68553 -22.9557 38.6491 0.0 0.0 0.0 -4.40752 -0.0288949 2.1215 -4.41002 0.106129 2.11904 31.7159 -28.6248 -19.2525 2.46787 -0.109465 -0.362831 -21.4364 26.9605 3.39511 -0.13987 0.0 0.0 -0.0 0.0 -0.0 9.75418 25.6915 -18.3801 -19.3218 -0.303092 -2.93557 42.0579 -18.6848 5.18345 -10.8498 0.0 0.0 0.0 0.0 0.0 
1243.19 941.022 -1607.05 -1.56031 65.4712 7.20433 4.5132 0.260424 -2.5717 4.504 -0.148857 -2.58055 -7.8603 13.1672 5.48771 -7.83235 20.717 8.28061 -0.0 0.0 -0.0 -1.59985 23.2762 0.496531 -19.489 -22.9698 69.2396 0.662332 -18.1647 0.105881 -4.81132 -0.194167 0.583384 2.83122 9.37971 22.7494 -0.0 0.0 -0.0 9.11178 -11.5136 -17.0676 -14.7349 30.6971 -51.881 1.58856 38.1972 -0.550075 -64.1556 5.80362 -5.21164 -7.61359 -22.1925 38.9122 0.0 0.0 0.0 -4.51127 -0.120505 2.58203 -4.51497 0.0439853 2.58447 29.4338 -28.3683 -18.8565 0.186019 -0.00770475 -0.0275064 -21.4792 25.3522 3.37199 0.76271 -0.0 -0.0 -0.0 0.0 -0.0 8.39681 26.2387 -18.2744 -21.0695 -0.281393 -3.20285 41.0396 -19.1082 5.1028 -11.0004 0.0 0.0 0.0 0.0 0.0 
1215.35 950.259 -1607.75 0.322056 66.5514 5.39831 4.49069 0.304966 -2.82722 4.47957 -0.145182 -2.8399 -8.29591 13.4497 6.48471 -8.25406 20.6332 9.388 -0.0 0.0 -0.0 -1.24049 22.0154 0.806437 -18.6698 -22.9954 69.7891 0.630888 -17.3554 0.0962888 -4.70844 -0.189504 0.571085 2.82162 9.41696 22.6944 -0.0 0.0 -0.0 8.86089 -12.7785 -16.4945 -17.2432 29.0837 -51.7051 1.40568 34.8487 -0.441189 -64.3098 5.82309 -5.21501 -7.53743 -21.9091 38.6138 0.0 0.0 0.0 -4.48836 -0.148843 2.83971 -4.49284 0.0320829 2.84343 27.549 -28.1263 -18.6517 -2.03466 0.0784123 0.30239 -22.2479 24.1321 3.47192 1.3117 -0.0 -0.0 -0.0 0.0 -0.0 8.21987 25.5304 -18.1657 -22.0646 -0.265399 -3.3547 41.5595 -19.479 5.15772 -10.7881 0.0 0.0 0.0 0.0 0.0 
1193.27 957.517 -1608.43 1.18299 66.6737 4.3285 4.42399 0.253583 -3.01991 4.41134 -0.226314 -3.02207 -8.66943 14.0621 7.67184 -8.60056 21.0383 10.742 -0.0 0.0 -0.0 -1.02167 22.1877 1.13919 -18.9313 -23.4146 69.5572 0.665433 -18.2442 0.106849 -3.90903 -0.154026 0.475236 2.70087 10.003 22.0453 -0.0 0.0 -0.0 8.51793 -13.5412 -15.8192 -20.4337 28.5258 -50.8791 1.45753 35.8278 -0.471183 -65.2587 5.94304 -5.23457 -7.48138 -20.4125 39.7522 0.0 0.0 0.0 -4.42132 -0.0798312 3.02947 -4.42642 0.113014 3.02842 26.2012 -27.7419 -18.0979 -3.80587 0.137883 0.567702 -19.9862 23.1344 3.1025 2.51588 -0.0 -0.0 -0.0 0.0 -0.0 8.48229 24.7826 -18.512 -22.5407 -0.256815 -3.42725 40.6251 -21.4588 5.12246 -11.0175 0.0 0.0 0.0 0.0 0.0 
1170.23 961.854 -1609.94 2.11606 67.6059 3.46223 4.28784 0.337589 -3.12119 4.27428 -0.159332 -3.13533 -8.5733 14.047 7.16349 -8.52346 21.3429 10.2305 -0.0 0.0 -0.0 -1.28284 22.1078 0.760285 -17.276 -23.0323 70.2921 0.655401 -17.987 0.10373 -4.58817 -0.184081 0.556695 2.80059 9.49311 22.5722 -0.0 0.0 -0.0 8.23877 -14.2646 -15.27 -20.6728 26.9902 -51.8585 1.24292 31.6195 -0.351951 -64.3529 5.82853 -5.21594 -7.44748 -21.4057 38.4353 0.0 0.0 0.0 -4.285 -0.142948 3.13612 -4.29047 0.0568016 3.13886 24.9917 -27.715 -17.9257 -5.1625 0.177866 0.772059 -23.1469 22.6215 3.58774 1.93044 -0.0 -0.0 -0.0 0.0 -0.0 8.22944 24.2972 -18.7108 -24.0753 -0.225043 -3.6606 41.2145 -19.9495 5.13805 -10.7553 0.0 0.0 0.0 0.0 0.0 
1157.22 964.017 -1611.19 5.18759 70.0359 0.191752 4.32855 0.120851 -3.18409 4.31461 -0.383277 -3.16327 -9.09614 14.0767 7.4793 -9.05615 21.2982 10.6316 -0.0 0.0 -0.0 -1.29591 22.2161 0.757885 -13.8186 -25.5928 70.6184 0.683913 -18.7159 0.112707 -5.0774 -0.206329 0.615156 2.69938 10.84 22.3128 -0.0 0.0 -0.0 7.66481 -14.7121 -14.2553 -23.5142 27.4017 -51.4144 1.11243 28.8567 -0.286219 -64.2622 5.81708 -5.21398 -7.14734 -19.1048 38.3913 0.0 0.0 0.0 -4.32557 0.0727662 3.18555 -4.33117 0.27522 3.17449 22.4677 -26.8591 -16.4546 -5.56033 0.188671 0.832155 -14.7403 21.5384 2.26543 3.49572 -0.0 -0.0 -0.0 0.0 -0.0 10.7745 25.0892 -20.2341 -29.9521 -0.0458989 -4.54432 42.0667 -24.0367 5.32987 -10.0965 0.0 0.0 0.0 0.0 0.0 
1141.05 966.443 -1612.88 6.76658 70.1482 -1.72934 4.48148 -0.03663 -3.28627 4.46684 -0.5549 -3.23934 -10.4845 13.9802 7.85777 -10.4879 21.173 11.2119 -0.0 0.0 -0.0 -0.954175 19.8102 0.905571 -8.32485 -27.8123 71.1954 0.740601 -20.1467 0.131567 -3.45571 -0.134504 0.420668 2.7601 11.5306 22.9609 -0.0 0.0 -0.0 7.51905 -14.9409 -13.9921 -24.9342 26.5494 -51.4305 1.04134 27.2863 -0.252764 -63.9214 5.77407 -5.20643 -6.80158 -18.2773 36.4485 0.0 0.0 0.0 -4.47831 0.218665 3.2792 -4.48419 0.426774 3.25868 19.5623 -27.6981 -16.7224 -7.11803 0.226955 1.06813 -16.5435 16.968 2.50861 3.65857 -0.0 -0.0 -0.0 0.0 -0.0 14.2746 26.0715 -20.7472 -35.9546 0.229662 -5.42367 42.1895 -25.5487 5.39235 -10.2796 0.0 0.0 0.0 0.0 0.0 
